<svg xmlns="http://www.w3.org/2000/svg" width="640" height="360" viewBox="0 0 640 360">
  <defs>
    <radialGradient id="floorGlow" cx="50%" cy="76%" r="58%">
      <stop offset="0" stop-color="#1a1d22"/>
      <stop offset="0.62" stop-color="#08090b"/>
      <stop offset="1" stop-color="#000000"/>
    </radialGradient>
    <radialGradient id="chrome" cx="34%" cy="22%" r="72%">
      <stop offset="0" stop-color="#ffffff"/>
      <stop offset="0.18" stop-color="#777d82"/>
      <stop offset="0.34" stop-color="#050505"/>
      <stop offset="0.54" stop-color="#cfd4d6"/>
      <stop offset="0.72" stop-color="#1a1d20"/>
      <stop offset="1" stop-color="#000000"/>
    </radialGradient>
    <linearGradient id="sweep" x1="0" y1="0" x2="1" y2="0">
      <stop offset="0.14" stop-color="#02ffd0"/>
      <stop offset="0.506" stop-color="#ff0aff"/>
      <stop offset="0.985" stop-color="#ffffff"/>
    </linearGradient>
    <filter id="blurGlow" x="-80%" y="-80%" width="260%" height="260%">
      <feGaussianBlur stdDeviation="7" result="blur"/>
      <feMerge>
        <feMergeNode in="blur"/>
        <feMergeNode in="SourceGraphic"/>
      </feMerge>
    </filter>
  </defs>
  <rect width="640" height="360" fill="#000"/>
  <ellipse cx="320" cy="284" rx="270" ry="74" fill="url(#floorGlow)"/>
  <ellipse cx="170" cy="260" rx="72" ry="18" fill="#000" opacity=".55"/>
  <ellipse cx="438" cy="266" rx="92" ry="20" fill="#000" opacity=".55"/>
  <circle cx="164" cy="176" r="72" fill="url(#chrome)"/>
  <path d="M105 207c36 22 88 18 123-8" fill="none" stroke="url(#sweep)" stroke-width="10" stroke-linecap="round" filter="url(#blurGlow)"/>
  <path d="M104 214c41 18 84 17 125-3" fill="none" stroke="#fff" stroke-opacity=".26" stroke-width="2"/>
  <g transform="translate(382 106)">
    <path d="M0 38 82 0l86 34-84 40z" fill="#f5f5f5"/>
    <path d="M84 74 168 34v96l-84 44z" fill="#0d0f13"/>
    <path d="M0 38 84 74v100L0 132z" fill="#050608"/>
    <path d="M8 94c18-16 30-1 47-7 18-7 29-31 48-26 23 6 26 42 57 25" fill="none" stroke="url(#sweep)" stroke-width="9" stroke-linecap="round" filter="url(#blurGlow)"/>
    <g stroke="#ffffff" stroke-opacity=".22" stroke-width="2">
      <path d="M0 70 84 106 168 66"/>
      <path d="M0 100 84 136 168 96"/>
      <path d="M28 50v94"/>
      <path d="M56 62v94"/>
      <path d="M112 60v96"/>
      <path d="M140 48v96"/>
    </g>
  </g>
</svg>
